HIERARCHY
ROOT Hips
{
  OFFSET 0 0 0
  CHANNELS 6 Xposition Yposition Zposition Zrotation Xrotation Yrotation
  JOINT Spine
  {
    OFFSET 0 10 0
    CHANNELS 6 Xposition Yposition Zposition Zrotation Xrotation Yrotation
    JOINT Neck
    {
      OFFSET 0 30 0
      CHANNELS 6 Xposition Yposition Zposition Zrotation Xrotation Yrotation
      JOINT Head
      {
        OFFSET 0 8 0
        CHANNELS 6 Xposition Yposition Zposition Zrotation Xrotation Yrotation
        End Site
        {
          OFFSET 0 10 0
        }
      }
    }
    JOINT LeftArm
    {
      OFFSET 15 30 0
      CHANNELS 6 Xposition Yposition Zposition Zrotation Xrotation Yrotation
      JOINT LeftForeArm
      {
        OFFSET 25 0 0
        CHANNELS 6 Xposition Yposition Zposition Zrotation Xrotation Yrotation
        JOINT LeftHand
        {
          OFFSET 25 0 0
          CHANNELS 6 Xposition Yposition Zposition Zrotation Xrotation Yrotation
          End Site
          {
            OFFSET 10 0 0
          }
        }
      }
    }
    JOINT RightArm
    {
      OFFSET -15 30 0
      CHANNELS 6 Xposition Yposition Zposition Zrotation Xrotation Yrotation
      JOINT RightForeArm
      {
        OFFSET -25 0 0
        CHANNELS 6 Xposition Yposition Zposition Zrotation Xrotation Yrotation
        JOINT RightHand
        {
          OFFSET -25 0 0
          CHANNELS 6 Xposition Yposition Zposition Zrotation Xrotation Yrotation
          End Site
          {
            OFFSET -10 0 0
          }
        }
      }
    }
  }
  JOINT LeftUpLeg
  {
    OFFSET 10 -10 0
    CHANNELS 6 Xposition Yposition Zposition Zrotation Xrotation Yrotation
    JOINT LeftLeg
    {
      OFFSET 0 -35 0
      CHANNELS 6 Xposition Yposition Zposition Zrotation Xrotation Yrotation
      JOINT LeftFoot
      {
        OFFSET 0 -40 0
        CHANNELS 6 Xposition Yposition Zposition Zrotation Xrotation Yrotation
        End Site
        {
          OFFSET 0 0 15
        }
      }
    }
  }
  JOINT RightUpLeg
  {
    OFFSET -10 -10 0
    CHANNELS 6 Xposition Yposition Zposition Zrotation Xrotation Yrotation
    JOINT RightLeg
    {
      OFFSET 0 -35 0
      CHANNELS 6 Xposition Yposition Zposition Zrotation Xrotation Yrotation
      JOINT RightFoot
      {
        OFFSET 0 -40 0
        CHANNELS 6 Xposition Yposition Zposition Zrotation Xrotation Yrotation
        End Site
        {
          OFFSET 0 0 15
        }
      }
    }
  }
}
MOTION
Frames:	14
Frame Time:	0.0166667
-53.5812 85.4188 -76.2603 0 0 -0 0 10 0 0 0 -0 0 30 0 0 0 -0 0 8 0 0 0 -0 15 30 0 -7.99999 4.82487e-07 1.75788e-05 25 0 0 -1.41036e-05 -4.82483e-07 -3.20679e-05 25 1.42109e-14 0 -1.7011e-20 6.7269e-14 1.4489e-05 -15 30 0 7.99999 3.49319e-06 -1.73614e-05 -25 -2.84217e-14 0 1.1072e-05 -6.90829e-06 2.94356e-05 -25 -2.84217e-14 0 2.55508e-06 3.41509e-06 -1.20742e-05 10 -10 0 0 0 -0 0 -35 0 -0 -6.83019e-06 -0 0 -40 0 0 6.83019e-06 -0 -10 -10 0 1.0234 -5.38155 -2.47474e-06 7.10543e-15 -35 0 0.00350233 10.0897 -0.0291333 0 -40 -1.42109e-14 -1.02477 -4.70789 -0.0589576 
-47.6145 84.9572 -83.0787 -4.46936 -2.18675 94.5899 -1.42109e-14 10 -7.10543e-15 3.16396 2.45368 -0.482961 0 30 -7.10543e-15 -5.81903 -11.1232 -5.43428 0 8 0 6.58643 17.47 -6.52956 15 30 -7.10543e-15 -90.8896 19.3322 -0.300611 25 1.42109e-14 -1.42109e-14 12.2521 -2.34203 -21.5655 25 0 1.42109e-14 3.91704e-06 -15.128 1.50092e-05 -15 30 -1.42109e-14 84.7154 21.2242 -3.74616 -25 1.42109e-14 -7.10543e-15 -14.3281 -3.24253 25.3811 -25 7.10543e-15 3.55271e-15 7.02471e-06 20.3136 -1.28749e-05 10 -10 -7.10543e-15 7.59842 -9.71642 -16.0647 0 -35 0 0.0651099 20.1235 -0.366448 -1.42109e-14 -40 0 4.52506 -19.6853 13.334 -10 -10 -7.10543e-15 -4.46134 -2.81867 -10.159 1.42109e-14 -35 -7.10543e-15 0.00334892 9.79244 -0.0291068 0 -40 0 -1.72356 -12.3123 -10.6643 
-47.6193 84.9558 -83.1563 -4.42349 -2.18986 94.7324 0 10 0 3.27728 2.49685 -0.397195 0 30 0 -6.03925 -11.2236 -5.49627 0 8 7.10543e-15 6.65663 17.48 -6.65484 15 30 0 -91.0056 19.2358 -0.305634 25 0 0 12.254 -2.34282 -21.5691 25 0 0 3.84719e-06 -14.8703 1.49911e-05 -15 30 0 84.5978 21.014 -3.93752 -25 0 0 -14.2744 -3.21717 25.2814 -25 7.10543e-15 3.55271e-15 7.0605e-06 20.4628 -1.28874e-05 10 -10 0 7.51535 -9.71029 -16.2855 0 -35 0 0.0654302 20.1848 -0.36764 1.42109e-14 -40 1.42109e-14 4.54712 -19.8695 13.2854 -10 -10 7.10543e-15 -4.49968 -2.68833 -10.2973 7.10543e-15 -35 0 0.00334387 9.78265 -0.029106 1.42109e-14 -40 -7.10543e-15 -1.72802 -12.3346 -10.6815 
-47.6008 84.9547 -83.1996 -4.38754 -2.16989 94.7738 1.42109e-14 10 -7.10543e-15 3.28382 2.56928 -0.296658 -1.42109e-14 30 0 -6.19884 -11.3209 -5.52798 1.42109e-14 8 7.10543e-15 6.85082 17.4428 -6.75128 15 30 0 -91.0047 19.0172 -0.42565 25 0 0 12.2194 -2.32913 -21.506 25 1.42109e-14 -7.10543e-15 3.79055e-06 -14.6609 1.49766e-05 -15 30 7.10543e-15 84.5297 20.7235 -4.0305 -25 0 0 -14.2159 -3.1897 25.1728 -25 7.10543e-15 3.55271e-15 7.11865e-06 20.7046 -1.29078e-05 10 -10 0 7.43185 -9.67854 -16.4504 1.42109e-14 -35 0 0.0656339 20.2263 -0.368331 -1.42109e-14 -40 0 4.61366 -20.0427 13.3667 -10 -10 0 -4.54425 -2.61208 -10.3361 -1.42109e-14 -35 7.10543e-15 0.0033353 9.76603 -0.0291045 0 -40 0 -1.7234 -12.286 -10.713 
-47.5803 84.9476 -83.2309 -4.39491 -2.11688 94.7654 -1.42109e-14 10 7.10543e-15 3.19779 2.60547 -0.337547 1.42109e-14 30 0 -6.1349 -11.4117 -5.49943 1.42109e-14 8 0 6.87567 17.3847 -6.67527 15 30 -7.10543e-15 -90.9615 18.7183 -0.526456 25 0 0 12.1998 -2.32248 -21.471 25 1.42109e-14 0 3.7625e-06 -14.557 1.49696e-05 -15 30 -7.10543e-15 84.4863 20.5002 -4.00631 -25 1.42109e-14 0 -14.1313 -3.15006 25.0159 -25 0 7.10543e-15 7.15135e-06 20.8403 -1.29194e-05 10 -10 7.10543e-15 7.33866 -9.67651 -16.4398 0 -35 -1.42109e-14 0.0656752 20.2593 -0.368585 0 -40 1.42109e-14 4.63143 -20.0582 13.4087 -10 -10 7.10543e-15 -4.63348 -2.60824 -10.3308 0 -35 7.10543e-15 0.00333523 9.76589 -0.0291045 7.10543e-15 -40 -1.42109e-14 -1.71951 -12.2725 -10.7147 
-47.5482 84.9368 -83.268 -4.43067 -2.07901 94.7549 0 10 0 3.14928 2.58567 -0.431368 0 30 0 -5.97014 -11.4851 -5.45658 0 8 0 6.69291 17.3636 -6.55127 15 30 0 -90.9655 18.4167 -0.543048 25 0 0 12.2099 -2.32531 -21.4886 25 0 0 3.71845e-06 -14.3937 1.49586e-05 -15 30 7.10543e-15 84.377 20.3894 -3.9618 -25 -1.42109e-14 0 -14.0568 -3.11556 24.8781 -25 0 3.55271e-15 7.13671e-06 20.7796 -1.29142e-05 10 -10 -7.10543e-15 7.28136 -9.71444 -16.2906 -1.42109e-14 -35 7.10543e-15 0.0658019 20.3064 -0.368734 1.42109e-14 -40 1.42109e-14 4.57908 -20.0143 13.2921 -10 -10 0 -4.70625 -2.65284 -10.3266 0 -35 -7.10543e-15 0.00335549 9.80519 -0.029108 7.10543e-15 -40 -7.10543e-15 -1.72242 -12.2573 -10.7328 
-47.512 84.9284 -83.3029 -4.45023 -2.04849 94.7387 0 10 1.42109e-14 3.14205 2.57195 -0.393597 1.42109e-14 30 0 -5.84804 -11.4847 -5.4313 0 8 0 6.48235 17.2722 -6.55331 15 30 0 -90.9612 18.2295 -0.557156 25 0 0 12.222 -2.32949 -21.5104 25 0 -7.10543e-15 3.66343e-06 -14.1894 1.4945e-05 -15 30 -7.10543e-15 84.1914 20.1297 -3.92498 -25 1.42109e-14 -7.10543e-15 -14.0016 -3.09005 24.7759 -25 0 3.55271e-15 7.15686e-06 20.8631 -1.29214e-05 10 -10 7.10543e-15 7.2464 -9.71957 -16.1372 0 -35 7.10543e-15 0.0658256 20.3264 -0.368963 0 -40 0 4.52286 -20.0019 13.1445 -10 -10 7.10543e-15 -4.74314 -2.61362 -10.3131 -7.10543e-15 -35 0 0.00331668 9.72989 -0.0291014 -7.10543e-15 -40 -7.10543e-15 -1.72209 -12.1325 -10.7934 
-47.477 84.9252 -83.3186 -4.42709 -1.99303 94.7068 1.42109e-14 10 0 3.10047 2.62798 -0.234245 0 30 7.10543e-15 -5.81775 -11.3966 -5.41542 0 8 7.10543e-15 6.46285 17.028 -6.64817 15 30 1.42109e-14 -90.8504 18.2497 -0.635333 25 -1.42109e-14 0 12.2367 -2.33589 -21.5373 25 0 0 3.67178e-06 -14.2204 1.4947e-05 -15 30 0 83.9927 19.7168 -3.91122 -25 1.42109e-14 0 -13.9861 -3.08288 24.7469 -25 0 3.55271e-15 7.22681e-06 21.1524 -1.29465e-05 10 -10 0 7.19996 -9.64142 -15.9922 0 -35 0 0.0656414 20.2902 -0.369482 0 -40 1.42109e-14 4.48035 -19.9423 13.0633 -10 -10 0 -4.81267 -2.56639 -10.2791 0 -35 0 0.00331679 9.7301 -0.0291014 0 -40 7.10543e-15 -1.72242 -12.0881 -10.8307 
-47.4474 84.9254 -83.3298 -4.37128 -1.9739 94.6838 0 10 0 3.10099 2.73843 -0.146171 -1.42109e-14 30 7.10543e-15 -5.89724 -11.3347 -5.41442 0 8 0 6.67159 16.8156 -6.68399 15 30 7.10543e-15 -90.6699 18.3806 -0.706943 25 1.42109e-14 -1.42109e-14 12.3003 -2.36107 -21.6533 25 0 0 3.75782e-06 -14.5397 1.49684e-05 -15 30 7.10543e-15 83.7854 19.6341 -3.9764 -25 0 -1.42109e-14 -14.0726 -3.12281 24.9071 -25 -1.42109e-14 0 7.21076e-06 21.0861 -1.29407e-05 10 -10 0 7.21266 -9.56597 -15.7294 -1.42109e-14 -35 -7.10543e-15 0.0660553 20.3014 -0.370818 0 -40 -1.42109e-14 4.37386 -19.8082 12.8462 -10 -10 0 -4.85768 -2.52079 -10.2511 -1.42109e-14 -35 0 0.00334367 9.78225 -0.0291059 0 -40 0 -1.72291 -12.1666 -10.8075 
-47.4218 84.9255 -83.3551 -4.31277 -2.07397 94.7063 1.42109e-14 10 7.10543e-15 3.25447 2.84888 -0.240704 1.42109e-14 30 0 -6.03302 -11.4191 -5.4409 -1.42109e-14 8 7.10543e-15 6.86701 16.8526 -6.6145 15 30 -7.10543e-15 -90.5318 18.4156 -0.685174 25 -1.42109e-14 0 12.4461 -2.41927 -21.9186 25 0 0 3.83845e-06 -14.838 1.49888e-05 -15 30 0 83.4985 19.9174 -4.02388 -25 -1.42109e-14 -7.10543e-15 -14.2314 -3.19691 25.2016 -25 0 0 7.09055e-06 20.5879 -1.28979e-05 10 -10 7.10543e-15 7.37401 -9.61456 -15.293 1.42109e-14 -35 0 0.0680038 20.4806 -0.373547 -1.42109e-14 -40 1.42109e-14 4.1498 -19.7262 12.261 -10 -10 0 -4.76571 -2.47267 -10.2676 -1.42109e-14 -35 0 0.00335764 9.80936 -0.0291083 1.42109e-14 -40 0 -1.72296 -12.2087 -10.8024 
-47.4011 84.9253 -83.3922 -4.26079 -2.21955 94.7573 0 10 0 3.4802 2.95686 -0.415453 1.42109e-14 30 -7.10543e-15 -6.0673 -11.599 -5.44971 0 8 7.10543e-15 6.77961 17.0344 -6.48254 15 30 -7.10543e-15 -90.4337 18.318 -0.600523 25 -1.42109e-14 0 12.6543 -2.50373 -22.2986 25 0 0 3.85791e-06 -14.9099 1.49938e-05 -15 30 -7.10543e-15 83.1139 19.8804 -3.82869 -25 -1.42109e-14 7.10543e-15 -14.3158 -3.23673 25.3584 -25 -7.10543e-15 -3.55271e-15 7.06627e-06 20.4868 -1.28894e-05 10 -10 -7.10543e-15 7.60184 -9.75718 -14.7563 -1.42109e-14 -35 0 0.0717105 20.7664 -0.379284 1.42109e-14 -40 -1.42109e-14 3.86178 -19.7243 11.4417 -10 -10 0 -4.59601 -2.38007 -10.312 0 -35 7.10543e-15 0.00331831 9.73306 -0.0291016 0 -40 0 -1.71415 -12.0733 -10.879 
-47.3798 84.9275 -83.415 -4.1946 -2.24435 94.766 1.42109e-14 10 0 3.56197 3.0988 -0.493241 0 30 0 -5.90762 -11.717 -5.37204 0 8 7.10543e-15 6.41252 17.1018 -6.31134 15 30 0 -90.2729 18.2885 -0.533235 25 -1.42109e-14 -1.42109e-14 12.8781 -2.59646 -22.7081 25 1.42109e-14 0 3.85981e-06 -14.9169 1.49943e-05 -15 30 7.10543e-15 82.7073 19.3669 -3.44499 -25 1.42109e-14 0 -14.3009 -3.2297 25.3307 -25 0 1.06581e-14 7.20425e-06 21.0592 -1.29383e-05 10 -10 -7.10543e-15 7.71739 -9.83026 -14.1625 -1.42109e-14 -35 0 0.0739383 20.9686 -0.382162 0 -40 0 3.60778 -19.641 10.7575 -10 -10 7.10543e-15 -4.55529 -2.30305 -10.3127 -7.10543e-15 -35 7.10543e-15 0.00331192 9.72065 -0.0291006 7.10543e-15 -40 0 -1.6948 -11.9008 -10.9708 
-47.353 84.9343 -83.4261 -4.09209 -2.13187 94.7216 -1.42109e-14 10 -7.10543e-15 3.4973 3.292 -0.422459 1.42109e-14 30 1.42109e-14 -5.68171 -11.73 -5.23885 -1.42109e-14 8 0 5.9699 17.0478 -6.14605 15 30 0 -90.0185 18.5581 -0.503153 25 1.42109e-14 1.42109e-14 13.0734 -2.67874 -23.0658 25 0 -1.42109e-14 3.90569e-06 -15.0862 1.50062e-05 -15 30 0 82.3039 19.1249 -3.19685 -25 0 7.10543e-15 -14.3438 -3.25 25.4103 -25 0 3.55271e-15 7.28588e-06 21.3958 -1.29679e-05 10 -10 7.10543e-15 7.69524 -9.75197 -13.5271 -1.42109e-14 -35 0 0.074859 21.0129 -0.384063 1.42109e-14 -40 0 3.4201 -19.3946 10.3387 -10 -10 7.10543e-15 -4.67246 -2.21211 -10.2573 1.42109e-14 -35 0 0.00332808 9.75201 -0.0291033 0 -40 0 -1.67366 -11.7844 -10.9935 
-47.323 84.9454 -83.442 -3.95548 -2.02556 94.721 -1.42109e-14 10 -7.10543e-15 3.49976 3.51593 -0.298282 0 30 7.10543e-15 -5.58733 -11.7436 -5.15561 0 8 -7.10543e-15 5.6064 17.0778 -6.0697 15 30 0 -89.7328 19.1827 -0.499595 25 0 1.42109e-14 13.2011 -2.7334 -23.3001 25 1.42109e-14 0 3.99676e-06 -15.4214 1.50302e-05 -15 30 0 81.8576 19.2709 -3.10762 -25 0 -1.42109e-14 -14.4751 -3.31261 25.6545 -25 7.10543e-15 7.10543e-15 7.21371e-06 21.0983 -1.29417e-05 10 -10 -7.10543e-15 7.66043 -9.59844 -12.9854 0 -35 -1.42109e-14 0.0751727 20.9965 -0.38529 0 -40 0 3.25935 -19.1315 9.99677 -10 -10 0 -4.78901 -2.05827 -10.2415 0 -35 0 0.00332641 9.74877 -0.029103 7.10543e-15 -40 0 -1.65206 -11.6978 -10.979 
